<svg xmlns="http://www.w3.org/2000/svg" viewBox="0 0 64 64"><path d="M50.5 13.6l-0.2-0.2c-4-4-10.4-4-14.4 0l-9.2 9.2c-4 4-4 10.4 0 14.4l0.2 0.2c0.3 0.3 0.7 0.6 1 0.9l3.4-3.4c-0.4-0.2-0.8-0.5-1.1-0.8l-0.2-0.2c-2.1-2.1-2.1-5.6 0-7.8l9.2-9.2c2.1-2.1 5.6-2.1 7.8 0l0.2 0.2c2.1 2.1 2.1 5.6 0 7.8l-4.1 4.1c0.7 1.8 1.1 3.7 1 5.6l6.4-6.4C54.5 24.1 54.5 17.6 50.5 13.6zM37 26.8c-0.3-0.3-0.7-0.6-1-0.9l-3.4 3.4c0.4 0.2 0.8 0.5 1.1 0.8l0.2 0.2c2.1 2.1 2.1 5.6 0 7.8l-9.2 9.2c-2.1 2.1-5.6 2.1-7.8 0l-0.2-0.2c-2.1-2.1-2.1-5.6 0-7.8l4.1-4.1c-0.7-1.8-1.1-3.7-1-5.6L13.5 36c-4 4-4 10.4 0 14.4l0.2 0.2c4 4 10.4 4 14.4 0l9.2-9.2c4-4 4-10.4 0-14.4L37 26.8z" fill="#010002"/></svg>